<svg width="106" height="16" viewBox="0 0 106 16" fill="none" xmlns="http://www.w3.org/2000/svg">
<path d="M8.67188 11.2793C8.67188 11.0254 8.63281 10.7975 8.55469 10.5957C8.48307 10.3874 8.34635 10.1986 8.14453 10.0293C7.94271 9.85352 7.65951 9.68099 7.29492 9.51172C6.93034 9.34245 6.45833 9.16667 5.87891 8.98438C5.23438 8.77604 4.6224 8.54167 4.04297 8.28125C3.47005 8.02083 2.96224 7.7181 2.51953 7.37305C2.08333 7.02148 1.73828 6.61458 1.48438 6.15234C1.23698 5.6901 1.11328 5.15299 1.11328 4.54102C1.11328 3.94857 1.24349 3.41146 1.50391 2.92969C1.76432 2.44141 2.12891 2.02474 2.59766 1.67969C3.06641 1.32812 3.61979 1.05794 4.25781 0.869141C4.90234 0.680339 5.60872 0.585938 6.37695 0.585938C7.42513 0.585938 8.33984 0.77474 9.12109 1.15234C9.90234 1.52995 10.5078 2.04753 10.9375 2.70508C11.3737 3.36263 11.5918 4.11458 11.5918 4.96094H8.68164C8.68164 4.54427 8.59375 4.17969 8.41797 3.86719C8.2487 3.54818 7.98828 3.29753 7.63672 3.11523C7.29167 2.93294 6.85547 2.8418 6.32812 2.8418C5.82031 2.8418 5.39714 2.91992 5.05859 3.07617C4.72005 3.22591 4.46615 3.43099 4.29688 3.69141C4.1276 3.94531 4.04297 4.23177 4.04297 4.55078C4.04297 4.79167 4.10156 5.00977 4.21875 5.20508C4.34245 5.40039 4.52474 5.58268 4.76562 5.75195C5.00651 5.92122 5.30273 6.08073 5.6543 6.23047C6.00586 6.38021 6.41276 6.52669 6.875 6.66992C7.64974 6.9043 8.33008 7.16797 8.91602 7.46094C9.50846 7.75391 10.0033 8.08268 10.4004 8.44727C10.7975 8.81185 11.097 9.22526 11.2988 9.6875C11.5007 10.1497 11.6016 10.6738 11.6016 11.2598C11.6016 11.8783 11.4811 12.4316 11.2402 12.9199C10.9993 13.4082 10.651 13.8216 10.1953 14.1602C9.73958 14.4987 9.19596 14.7559 8.56445 14.9316C7.93294 15.1074 7.22656 15.1953 6.44531 15.1953C5.74219 15.1953 5.04883 15.1042 4.36523 14.9219C3.68164 14.7331 3.0599 14.4499 2.5 14.0723C1.94661 13.6947 1.50391 13.2129 1.17188 12.627C0.839844 12.041 0.673828 11.3477 0.673828 10.5469H3.61328C3.61328 10.9896 3.68164 11.3639 3.81836 11.6699C3.95508 11.9759 4.14714 12.2233 4.39453 12.4121C4.64844 12.6009 4.94792 12.7376 5.29297 12.8223C5.64453 12.9069 6.02865 12.9492 6.44531 12.9492C6.95312 12.9492 7.36979 12.8776 7.69531 12.7344C8.02734 12.5911 8.27148 12.3926 8.42773 12.1387C8.59049 11.8848 8.67188 11.5983 8.67188 11.2793ZM19.9309 9.93164H16.3078V7.64648H19.9309C20.4908 7.64648 20.9465 7.55534 21.298 7.37305C21.6496 7.18424 21.9068 6.92383 22.0695 6.5918C22.2323 6.25977 22.3137 5.88542 22.3137 5.46875C22.3137 5.04557 22.2323 4.65169 22.0695 4.28711C21.9068 3.92253 21.6496 3.62956 21.298 3.4082C20.9465 3.18685 20.4908 3.07617 19.9309 3.07617H17.3234V15H14.3938V0.78125H19.9309C21.0441 0.78125 21.9979 0.983073 22.7922 1.38672C23.593 1.78385 24.2049 2.33398 24.6281 3.03711C25.0513 3.74023 25.2629 4.54427 25.2629 5.44922C25.2629 6.36719 25.0513 7.16146 24.6281 7.83203C24.2049 8.5026 23.593 9.02018 22.7922 9.38477C21.9979 9.74935 21.0441 9.93164 19.9309 9.93164ZM37.225 12.7148V15H30.0668V12.7148H37.225ZM31.0141 0.78125V15H28.0844V0.78125H31.0141ZM45.6813 3.21289L41.8141 15H38.6988L43.982 0.78125H45.9645L45.6813 3.21289ZM48.8941 15L45.0172 3.21289L44.7047 0.78125H46.7066L52.0191 15H48.8941ZM48.7184 9.70703V12.002H41.2086V9.70703H48.7184ZM61.5398 11.2793C61.5398 11.0254 61.5008 10.7975 61.4227 10.5957C61.351 10.3874 61.2143 10.1986 61.0125 10.0293C60.8107 9.85352 60.5275 9.68099 60.1629 9.51172C59.7983 9.34245 59.3263 9.16667 58.7469 8.98438C58.1023 8.77604 57.4904 8.54167 56.9109 8.28125C56.338 8.02083 55.8302 7.7181 55.3875 7.37305C54.9513 7.02148 54.6063 6.61458 54.3523 6.15234C54.1049 5.6901 53.9813 5.15299 53.9813 4.54102C53.9813 3.94857 54.1115 3.41146 54.3719 2.92969C54.6323 2.44141 54.9969 2.02474 55.4656 1.67969C55.9344 1.32812 56.4878 1.05794 57.1258 0.869141C57.7703 0.680339 58.4767 0.585938 59.2449 0.585938C60.2931 0.585938 61.2078 0.77474 61.9891 1.15234C62.7703 1.52995 63.3758 2.04753 63.8055 2.70508C64.2417 3.36263 64.4598 4.11458 64.4598 4.96094H61.5496C61.5496 4.54427 61.4617 4.17969 61.2859 3.86719C61.1167 3.54818 60.8563 3.29753 60.5047 3.11523C60.1596 2.93294 59.7234 2.8418 59.1961 2.8418C58.6883 2.8418 58.2651 2.91992 57.9266 3.07617C57.588 3.22591 57.3341 3.43099 57.1648 3.69141C56.9956 3.94531 56.9109 4.23177 56.9109 4.55078C56.9109 4.79167 56.9695 5.00977 57.0867 5.20508C57.2104 5.40039 57.3927 5.58268 57.6336 5.75195C57.8745 5.92122 58.1707 6.08073 58.5223 6.23047C58.8738 6.38021 59.2807 6.52669 59.743 6.66992C60.5177 6.9043 61.198 7.16797 61.784 7.46094C62.3764 7.75391 62.8712 8.08268 63.2684 8.44727C63.6655 8.81185 63.965 9.22526 64.1668 9.6875C64.3686 10.1497 64.4695 10.6738 64.4695 11.2598C64.4695 11.8783 64.3491 12.4316 64.1082 12.9199C63.8673 13.4082 63.519 13.8216 63.0633 14.1602C62.6076 14.4987 62.0639 14.7559 61.4324 14.9316C60.8009 15.1074 60.0945 15.1953 59.3133 15.1953C58.6102 15.1953 57.9168 15.1042 57.2332 14.9219C56.5496 14.7331 55.9279 14.4499 55.368 14.0723C54.8146 13.6947 54.3719 13.2129 54.0398 12.627C53.7078 12.041 53.5418 11.3477 53.5418 10.5469H56.4813C56.4813 10.9896 56.5496 11.3639 56.6863 11.6699C56.823 11.9759 57.0151 12.2233 57.2625 12.4121C57.5164 12.6009 57.8159 12.7376 58.1609 12.8223C58.5125 12.9069 58.8966 12.9492 59.3133 12.9492C59.8211 12.9492 60.2378 12.8776 60.5633 12.7344C60.8953 12.5911 61.1395 12.3926 61.2957 12.1387C61.4585 11.8848 61.5398 11.5983 61.5398 11.2793ZM76.7441 6.57227V8.85742H69.3223V6.57227H76.7441ZM70.1914 0.78125V15H67.2617V0.78125H70.1914ZM78.834 0.78125V15H75.9141V0.78125H78.834ZM91.7238 12.7148V15H84.1555V12.7148H91.7238ZM85.1125 0.78125V15H82.1828V0.78125H85.1125ZM90.7375 6.57227V8.79883H84.1555V6.57227H90.7375ZM91.7141 0.78125V3.07617H84.1555V0.78125H91.7141ZM98.598 15H95.5023L95.5219 12.7148H98.598C99.3663 12.7148 100.014 12.5423 100.541 12.1973C101.069 11.8457 101.466 11.3346 101.733 10.6641C102.006 9.99349 102.143 9.18294 102.143 8.23242V7.53906C102.143 6.8099 102.065 6.16862 101.909 5.61523C101.759 5.06185 101.534 4.59635 101.235 4.21875C100.935 3.84115 100.567 3.55794 100.131 3.36914C99.6951 3.17383 99.1937 3.07617 98.6273 3.07617H95.4437V0.78125H98.6273C99.5779 0.78125 100.447 0.94401 101.235 1.26953C102.029 1.58854 102.716 2.04753 103.295 2.64648C103.875 3.24544 104.321 3.96159 104.633 4.79492C104.952 5.62174 105.112 6.54297 105.112 7.55859V8.23242C105.112 9.24154 104.952 10.1628 104.633 10.9961C104.321 11.8294 103.875 12.5456 103.295 13.1445C102.722 13.737 102.036 14.196 101.235 14.5215C100.44 14.8405 99.5616 15 98.598 15ZM97.1625 0.78125V15H94.2328V0.78125H97.1625Z" fill="black"/>
</svg>
